<svg width="32" height="32" fill="none" xmlns="http://www.w3.org/2000/svg"><rect width="32" height="32" rx="16" fill="#FF2F64"/><path fill-rule="evenodd" clip-rule="evenodd" d="M9.1667 9.25a.6667.6667 0 0 0 0 1.3333h1.7712l.4675 2.3354a.656.656 0 0 0 .0106.0531l.9674 4.8334.0001.0005a1.8255 1.8255 0 0 0 1.8183 1.4691h5.6207a1.8256 1.8256 0 0 0 1.8185-1.4696l.001-.005.9271-4.8615a.6668.6668 0 0 0-.6549-.7915h-9.3035l-.4726-2.3614a.6667.6667 0 0 0-.6537-.5358H9.1667Zm4.5243 8.2944-.8134-4.0639h8.2308l-.7756 4.0669a.4922.4922 0 0 1-.4918.3942v-.0001H14.1961v-.0001l-.0127.0002a.4926.4926 0 0 1-.4922-.3962l-.0002-.001Zm-1.1336 3.961c0-.6879.5577-1.2457 1.2457-1.2457.6879 0 1.2457.5578 1.2457 1.2457 0 .688-.5578 1.2457-1.2457 1.2457-.688 0-1.2457-.5577-1.2457-1.2457Zm6.3733 0c0-.6879.5577-1.2457 1.2457-1.2457.688 0 1.2457.5578 1.2457 1.2457 0 .688-.5577 1.2457-1.2457 1.2457-.688 0-1.2457-.5577-1.2457-1.2457Z" fill="#FCFCFC"/></svg>